<svg xmlns="http://www.w3.org/2000/svg" xmlns:xlink="http://www.w3.org/1999/xlink" fill="none" version="1.1" width="20" height="20" viewBox="0 0 20 20"><defs><clipPath id="master_svg0_126_2501/15_9995/15_9991"><rect x="0" y="0" width="20" height="20" rx="0"/></clipPath></defs><g clip-path="url(#master_svg0_126_2501/15_9995/15_9991)"><g><path d="M12.9166806640625,11.6666606640625L12.2583306640625,11.6666606640625L12.0250006640625,11.4416606640625C13.0794806640625,10.2166406640625,13.5317806640625,8.5847106640625,13.2582806640625,6.9916606640625C12.8666806640625,4.6749906640625,10.9333306640625,2.8249956640625,8.600000664062499,2.5416617640625C5.0863506640625005,2.0971526640625,2.0971536640625,5.0863506640625005,2.5416629640625,8.5999906640625C2.8249966640625,10.9333306640625,4.6750006640625,12.8666806640625,6.9916606640625,13.2582806640625C8.5847206640625,13.5317806640625,10.2166406640625,13.0794806640625,11.4416606640625,12.0250006640625L11.6666606640625,12.2583306640625L11.6666606640625,12.9166806640625L15.2082806640625,16.4582806640625C15.5499806640625,16.799980664062502,16.108280664062498,16.799980664062502,16.4499806640625,16.4582806640625C16.7916806640625,16.1166806640625,16.7916806640625,15.5582806640625,16.4499806640625,15.2166806640625L12.9166806640625,11.6666606640625ZM7.9166606640625,11.6666606640625C5.8416606640625,11.6666606640625,4.1666606640624995,9.9916606640625,4.1666606640624995,7.9166606640625C4.1666606640624995,5.8416606640625,5.8416606640625,4.1666606640624995,7.9166606640625,4.1666606640624995C9.9916606640625,4.1666606640624995,11.6666606640625,5.8416606640625,11.6666606640625,7.9166606640625C11.6666606640625,9.9916606640625,9.9916606640625,11.6666606640625,7.9166606640625,11.6666606640625Z" fill="#606260" fill-opacity="1" style="mix-blend-mode:passthrough"/></g></g></svg>