<svg id="레이어_1" data-name="레이어 1" xmlns="http://www.w3.org/2000/svg" viewBox="0 0 738.99 153.07"><defs><style>.cls-1{fill:#f55;}</style></defs><path class="cls-1" d="M195.54,150.68V43h36.32V150.68ZM213.92,34.27q-9.19,0-14.22-4.59-4.81-4.61-4.82-12.26a17.11,17.11,0,0,1,4.81-12.25q5-5,14.23-5t14,5a16.66,16.66,0,0,1,5,12.25q0,7.66-5,12.26-4.81,4.59-14,4.59Zm72.14,118.6q-15.76,0-23.85-8.32-7.89-8.52-7.88-23.63v-51H239.89V43h14.44V16.77h36.32V43h23.64V69.94H290.65v45.73c0,3.36.66,5.76,2,7.22s3.65,2,6.56,2q5.91,0,12.91-5.25l8.32,23.85a54.86,54.86,0,0,1-14.44,7,70.6,70.6,0,0,1-19.91,2.41Zm89.34,0q-24.94,0-39.39-14.22-14.22-14.22-14.22-41.36,0-19.7,8.09-33,8.33-13.78,20.8-18.6,13.13-5,24.29-5,14,0,23.42,5.69,9.41,5.46,13.78,12a102.86,102.86,0,0,1,6.56,10.29L393.58,84.82a41.73,41.73,0,0,0-7.66-11.38,13.7,13.7,0,0,0-10.06-4.16,15.4,15.4,0,0,0-13.13,6.57q-4.8,6.56-4.81,19.91,0,14.44,5.69,21.22t16.19,6.79q8.32,0,13.79-3.07a49.48,49.48,0,0,0,10.72-7.88L415.91,140q-5.25,4.38-15.54,8.76-10.28,4.15-24.94,4.15Zm52.85-2.19V4.51h36.54V48.93A46.93,46.93,0,0,1,476,43.24a42.45,42.45,0,0,1,15.76-2.62q19.25,0,28.66,10.94Q530,62.51,530,82.42v68.27H493.46V86.79q0-9.18-3.5-13.35a11.2,11.2,0,0,0-9.19-4.37,19,19,0,0,0-9,2.19,39.13,39.13,0,0,0-7,4.61V150.7H428.25Zm129.81,2.19q-8.76,0-13.79-5a17.47,17.47,0,0,1-5-12.91,18.21,18.21,0,0,1,5-13.13q5-5.25,13.78-5.25,8.33,0,13.35,5.25a18.21,18.21,0,0,1,5,13.13,17.47,17.47,0,0,1-5,12.91q-4.8,5-13.34,5Zm26.86-2.19V43h36.33V150.68ZM603.3,34.29q-9.19,0-14.23-4.59-4.8-4.61-4.81-12.26a17.11,17.11,0,0,1,4.81-12.25q5-5,14.23-5t14,5a16.66,16.66,0,0,1,5,12.25q0,7.66-5,12.26Q612.49,34.29,603.3,34.29Zm82.09,118.58a57.35,57.35,0,0,1-22.54-4.16A51.47,51.47,0,0,1,646,136.9a55,55,0,0,1-10.5-18A71.32,71.32,0,0,1,632,96.2q0-18.17,7.87-31.73Q648,51.12,660,45.87a63.84,63.84,0,0,1,25.39-5.25q18.81,0,31.06,8.75A47.11,47.11,0,0,1,734,71.25a69.84,69.84,0,0,1,5,25A67.4,67.4,0,0,1,735.26,119a50.19,50.19,0,0,1-10.5,18,48.8,48.8,0,0,1-16.86,11.82,57.48,57.48,0,0,1-22.53,4.16Zm0-28q9.18,0,13.34-7.66,4.17-7.87,4.16-21,0-12.48-4.37-19.91a14.28,14.28,0,0,0-13.13-7.44,14.09,14.09,0,0,0-12.91,7.44q-4.37,7.44-4.37,19.91,0,13.13,4.16,21a14.2,14.2,0,0,0,13.13,7.66Z"/><path class="cls-1" d="M22.6,3.33C15.37,7.63,1.11,24,1,28.29V35.4c0,9,8.42,16.93,16.07,16.93A16.92,16.92,0,0,0,33.88,35.69,16.68,16.68,0,0,0,50.45,52.33,16.49,16.49,0,0,0,66.78,35.69c0,9,7.85,16.64,17,16.64H84c9.18,0,17-7.61,17-16.64a16.48,16.48,0,0,0,16.32,16.64,16.69,16.69,0,0,0,16.57-16.64,16.92,16.92,0,0,0,16.83,16.64c7.64,0,16.07-7.92,16.07-16.93V28.29c-.15-4.29-14.4-20.66-21.63-25-22.47-.79-38.07-.92-61.29-.92S29,2.77,22.6,3.33ZM66.66,48.09a18.59,18.59,0,0,1-3.23,4.16,19.24,19.24,0,0,1-26.93,0,18.07,18.07,0,0,1-3.09-4.07h0a19.24,19.24,0,0,1-3.34,4.08,19.28,19.28,0,0,1-13.48,5.49,5.82,5.82,0,0,1-1.81-.35c-.74,7.68-1,15-1.16,20.39v0c0,2.72,0,5,0,8.06C13.72,102,12,138.14,20.69,147c13.49,3.15,38.32,4.59,63.23,4.59h0c24.91,0,49.74-1.44,63.23-4.58,8.71-8.88,7-45,7.11-61.15,0-3.1,0-5.34,0-8.06v0c-.11-5.36-.42-12.7-1.16-20.39a5.89,5.89,0,0,1-1.82.36,19.28,19.28,0,0,1-13.48-5.49,19,19,0,0,1-3.35-4.08h0a18.13,18.13,0,0,1-3.09,4.08,19.26,19.26,0,0,1-26.93,0,18.93,18.93,0,0,1-3.24-4.16A18.71,18.71,0,0,1,98,52.26a19.24,19.24,0,0,1-13.49,5.49h-1.1a19.24,19.24,0,0,1-13.48-5.49,18.8,18.8,0,0,1-3.21-4.16ZM52.82,66h0c5.48,0,10.36,0,16.39,6.58a141.2,141.2,0,0,1,14.68-.73h0a138.46,138.46,0,0,1,14.68.74C104.63,66,109.5,66,115,66h0c2.59,0,13,0,20.17,20.28l7.76,27.82c5.75,20.7-1.84,21.21-11.3,21.22-14-.51-21.81-10.71-21.81-20.91a164,164,0,0,1-25.9,1.92h0A163.82,163.82,0,0,1,58,114.41c0,10.2-7.77,20.39-21.81,20.91-9.47,0-17.06-.52-11.31-21.21l7.76-27.83C39.88,66,50.25,66,52.83,66ZM83.9,81.93h0s-14.78,13.58-17.43,18.4l9.66-.39v8.43c0,.4,3.88.24,7.77.06h0c3.88.18,7.76.34,7.76-.06V99.94l9.67.39C98.68,95.5,83.9,81.93,83.9,81.93Z"/></svg>