<svg xmlns="http://www.w3.org/2000/svg" xmlns:xlink="http://www.w3.org/1999/xlink" fill="none" version="1.1" width="70" height="9.671051979064941" viewBox="0 0 70 9.671051979064941"><defs><clipPath id="master_svg0_37_9894"><rect x="0" y="0" width="70" height="9.671051979064941" rx="0"/></clipPath></defs><g clip-path="url(#master_svg0_37_9894)"><g><path d="M44.7112,1.9044C44.9787,2.10269,45.1301,2.38087,45.1654,2.73897L46.9953,2.73897C46.9866,2.19739,46.8424,1.72092,46.5633,1.30955C46.2838,0.898192,45.893,0.57709,45.3903,0.346255C44.8905,0.115419,44.3055,0,43.6352,0C42.9768,0,42.3888,0.115419,41.8714,0.346255C41.3541,0.57709,40.9469,0.898192,40.65,1.30955C40.356,1.72092,40.2105,2.20183,40.2134,2.75228C40.2105,3.42407,40.4295,3.95826,40.8705,4.35482C41.3114,4.75139,41.9126,5.0429,42.674,5.22932L43.6573,5.47791C43.9865,5.55782,44.2644,5.64661,44.4907,5.74428C44.72,5.84196,44.8934,5.96032,45.0111,6.09939C45.1316,6.23852,45.1918,6.41016,45.1918,6.61436C45.1918,6.83334,45.1257,7.02722,44.9934,7.19591C44.8611,7.36455,44.6744,7.49626,44.4334,7.59099C44.1953,7.68568,43.9146,7.73302,43.5912,7.73302C43.2619,7.73302,42.9664,7.68273,42.7048,7.58211C42.4462,7.47853,42.2389,7.3261,42.0831,7.12485C41.9302,6.92065,41.8435,6.66616,41.8229,6.36134L39.9753,6.36134C39.99,7.01538,40.1473,7.56433,40.4472,8.00823C40.75,8.44923,41.1703,8.78215,41.7083,9.00707C42.2492,9.23199,42.8842,9.34445,43.6132,9.34445C44.3481,9.34445,44.9758,9.23346,45.4961,9.01149C46.0193,8.78657,46.4192,8.47143,46.6955,8.06598C46.9746,7.65754,47.116,7.17518,47.1187,6.61878C47.116,6.23999,47.0469,5.90409,46.9115,5.6111C46.7793,5.31811,46.5928,5.06362,46.3515,4.84755C46.1107,4.63151,45.8253,4.44952,45.4961,4.30155C45.1668,4.15358,44.8052,4.0352,44.4113,3.94642L43.6,3.75109C43.403,3.7067,43.2178,3.65343,43.0444,3.59129C42.8709,3.52618,42.7181,3.45071,42.5858,3.36489C42.4535,3.2761,42.3491,3.17104,42.2727,3.04971C42.1992,2.92837,42.1654,2.78632,42.1713,2.62355C42.1713,2.42822,42.2271,2.25362,42.3389,2.09972C42.4535,1.94583,42.6181,1.82598,42.8327,1.74015C43.0473,1.65137,43.3104,1.60698,43.622,1.60698C44.0806,1.60698,44.4437,1.70612,44.7112,1.9044ZM7.0607,9.21568L9.10672,9.21568L9.77665,7.14263L13.0373,7.14263L13.7059,9.21568L15.7519,9.21568L12.6388,0.124297L10.1783,0.124297L7.0607,9.21568ZM12.5534,5.64219L11.4438,2.20183L11.3733,2.20183L10.2615,5.64219L12.5534,5.64219ZM20.0029,4.44805L21.7226,4.3415C21.6403,3.7141,21.3522,3.21839,20.8583,2.85438C20.3674,2.49037,19.6942,2.30837,18.8388,2.30837C18.2596,2.30837,17.754,2.39419,17.3219,2.56584C16.8927,2.73748,16.559,2.98164,16.3209,3.2983C16.0857,3.61496,15.9682,3.99229,15.9682,4.43029C15.9682,4.93933,16.1284,5.35809,16.4488,5.68658C16.7721,6.01507,17.2645,6.24589,17.926,6.37907L19.0989,6.61436C19.3929,6.67353,19.6104,6.75938,19.7515,6.87184C19.8926,6.9813,19.9646,7.1219,19.9676,7.29354C19.9646,7.49774,19.8618,7.66496,19.6589,7.79519C19.459,7.92243,19.1945,7.98608,18.8652,7.98608C18.5301,7.98608,18.2552,7.91502,18.0406,7.77299C17.826,7.62798,17.6908,7.41784,17.6349,7.14263L15.7873,7.24026C15.8785,7.89135,16.1886,8.40631,16.7178,8.78509C17.2498,9.16098,17.9642,9.34887,18.8608,9.34887C19.4488,9.34887,19.9676,9.25566,20.4174,9.06919C20.8701,8.87982,21.2258,8.6164,21.4845,8.27902C21.7461,7.94169,21.8769,7.54955,21.8769,7.10265C21.8769,6.61141,21.7152,6.21485,21.3919,5.91297C21.0685,5.6111,20.5776,5.39212,19.9191,5.25599L18.6932,5.0074C18.3787,4.93933,18.1568,4.84907,18.0274,4.73661C17.898,4.62415,17.8334,4.48652,17.8334,4.32375C17.8334,4.11955,17.9333,3.95677,18.1332,3.83544C18.3331,3.71114,18.5786,3.64899,18.8696,3.64899C19.0872,3.64899,19.2738,3.68599,19.4297,3.75997C19.5884,3.831,19.7162,3.92718,19.8133,4.04852C19.9103,4.1669,19.9735,4.30007,20.0029,4.44805ZM28.1364,4.3415L26.4167,4.44805C26.3873,4.30007,26.3241,4.1669,26.2271,4.04852C26.1301,3.92718,26.0022,3.831,25.8434,3.75997C25.6877,3.68599,25.501,3.64899,25.2834,3.64899C24.9924,3.64899,24.7469,3.71114,24.5471,3.83544C24.3471,3.95677,24.2472,4.11955,24.2472,4.32375C24.2472,4.48652,24.3119,4.62415,24.4412,4.73661C24.5706,4.84907,24.7925,4.93933,25.1071,5.0074L26.3329,5.25599C26.9914,5.39212,27.4823,5.6111,27.8057,5.91297C28.1291,6.21485,28.2908,6.61141,28.2908,7.10265C28.2908,7.54955,28.1599,7.94169,27.8983,8.27902C27.6396,8.6164,27.2839,8.87982,26.8312,9.06919C26.3814,9.25566,25.8626,9.34887,25.2746,9.34887C24.378,9.34887,23.6637,9.16098,23.1316,8.78509C22.6024,8.40631,22.2923,7.89135,22.2012,7.24026L24.0488,7.14263C24.1046,7.41784,24.2399,7.62798,24.4545,7.77299C24.6691,7.91502,24.9439,7.98608,25.279,7.98608C25.6083,7.98608,25.8729,7.92243,26.0727,7.79519C26.2756,7.66496,26.3785,7.49774,26.3814,7.29354C26.3785,7.1219,26.3065,6.9813,26.1654,6.87184C26.0243,6.75938,25.8067,6.67353,25.5127,6.61436L24.3398,6.37907C23.6784,6.24589,23.186,6.01507,22.8626,5.68658C22.5422,5.35809,22.3819,4.93933,22.3819,4.43029C22.3819,3.99229,22.4996,3.61496,22.7347,3.2983C22.9728,2.98164,23.3065,2.73748,23.7357,2.56584C24.1678,2.39419,24.6735,2.30837,25.2526,2.30837C26.108,2.30837,26.7812,2.49037,27.2721,2.85438C27.766,3.21839,28.0541,3.7141,28.1364,4.3415ZM30.2024,8.9227C30.7051,9.20684,31.3048,9.34887,32.0016,9.34887C32.5601,9.34887,33.0525,9.26307,33.4787,9.09139C33.9079,8.9168,34.2578,8.67411,34.5282,8.36339C34.8016,8.04968,34.9824,7.68273,35.0706,7.26246L33.3332,7.14705C33.2686,7.31869,33.1745,7.4637,33.051,7.58211C32.9275,7.70046,32.7791,7.78925,32.6056,7.84843C32.4322,7.90765,32.2411,7.93722,32.0324,7.93722C31.7179,7.93722,31.4459,7.87063,31.2166,7.73744C30.9873,7.6043,30.8095,7.41489,30.6831,7.16924C30.5596,6.9236,30.4979,6.63213,30.4979,6.29475L30.4979,6.29028L35.1102,6.29028L35.1102,5.7709C35.1102,5.19087,35.0294,4.6848,34.8677,4.25272C34.7061,3.81768,34.4797,3.45663,34.1887,3.16956C33.9006,2.8825,33.5625,2.66794,33.1745,2.52589C32.7894,2.38087,32.3734,2.30837,31.9266,2.30837C31.2622,2.30837,30.6831,2.45634,30.1892,2.75228C29.6983,3.04823,29.3176,3.46107,29.0471,3.99081C28.7767,4.52055,28.6415,5.13611,28.6415,5.83749C28.6415,6.55665,28.7767,7.17961,29.0471,7.7064C29.3176,8.2302,29.7027,8.63565,30.2024,8.9227ZM30.4996,5.11834C30.511,4.87352,30.5736,4.65007,30.6875,4.44805C30.811,4.22608,30.9814,4.05,31.199,3.91978C31.4194,3.78661,31.6723,3.72002,31.9574,3.72002C32.2308,3.72002,32.4704,3.78069,32.6762,3.90203C32.8849,4.0204,33.0481,4.18465,33.1657,4.39478C33.2832,4.6049,33.3421,4.84607,33.3421,5.11834L30.4996,5.11834ZM39.3799,2.39715L39.3799,3.81768L38.1056,3.81768L38.1056,7.12043C38.1056,7.29501,38.132,7.43115,38.1849,7.52883C38.2379,7.62351,38.3114,7.6901,38.4055,7.7286C38.5024,7.76705,38.6142,7.78631,38.7406,7.78631C38.8288,7.78631,38.917,7.77889,39.0051,7.76411C39.0933,7.74633,39.1609,7.73302,39.208,7.72413L39.5034,9.13136C39.4094,9.16098,39.277,9.19501,39.1066,9.23346C38.9361,9.27491,38.7288,9.30005,38.4848,9.30894C38.0321,9.32667,37.6352,9.26602,37.2942,9.12694C36.9562,8.98782,36.6931,8.77178,36.5049,8.4788C36.3168,8.18581,36.2242,7.81587,36.2271,7.36902L36.2271,3.81768L35.3011,3.81768L35.3011,2.39715L36.2271,2.39715L36.2271,0.763534L38.1056,0.763534L38.1056,2.39715L39.3799,2.39715ZM51.5978,2.39715L51.5978,3.81768L50.3236,3.81768L50.3236,7.12043C50.3236,7.29501,50.3498,7.43115,50.4027,7.52883C50.4557,7.62351,50.5294,7.6901,50.6234,7.7286C50.7205,7.76705,50.832,7.78631,50.9586,7.78631C51.0466,7.78631,51.135,7.77889,51.223,7.76411C51.3114,7.74633,51.3791,7.73302,51.4261,7.72413L51.7212,9.13136C51.6273,9.16098,51.4951,9.19501,51.3243,9.23346C51.1539,9.27491,50.9466,9.30005,50.7026,9.30894C50.2499,9.32667,49.8534,9.26602,49.5121,9.12694C49.1741,8.98782,48.9111,8.77178,48.7228,8.4788C48.5349,8.18581,48.4423,7.81587,48.4451,7.36902L48.4451,3.81768L47.519,3.81768L47.519,2.39715L48.4451,2.39715L48.4451,0.763534L50.3236,0.763534L50.3236,2.39715L51.5978,2.39715ZM53.4731,8.90939C53.9728,9.20238,54.5655,9.34887,55.2503,9.34887C55.9351,9.34887,56.5259,9.20238,57.0228,8.90939C57.5225,8.61345,57.9075,8.20211,58.1783,7.67532C58.4486,7.14557,58.584,6.53151,58.584,5.83307C58.584,5.1287,58.4486,4.51315,58.1783,3.98637C57.9075,3.45663,57.5225,3.04527,57.0228,2.75228C56.5259,2.45634,55.9351,2.30837,55.2503,2.30837C54.5655,2.30837,53.9728,2.45634,53.4731,2.75228C52.9762,3.04527,52.5926,3.45663,52.3223,3.98637C52.0519,4.51315,51.9165,5.1287,51.9165,5.83307C51.9165,6.53151,52.0519,7.14557,52.3223,7.67532C52.5926,8.20211,52.9762,8.61345,53.4731,8.90939ZM56.0396,7.61761C55.831,7.79519,55.5708,7.88393,55.259,7.88393C54.9445,7.88393,54.6801,7.79519,54.4655,7.61761C54.2537,7.43708,54.0934,7.19144,53.9848,6.88072C53.8788,6.56996,53.8259,6.21632,53.8259,5.81977C53.8259,5.42316,53.8788,5.06952,53.9848,4.7588C54.0934,4.44805,54.2537,4.20241,54.4655,4.02188C54.6801,3.84136,54.9445,3.75109,55.259,3.75109C55.5708,3.75109,55.831,3.84136,56.0396,4.02188C56.2482,4.20241,56.4057,4.44805,56.5112,4.7588C56.6203,5.06952,56.6747,5.42316,56.6747,5.81977C56.6747,6.21632,56.6203,6.56996,56.5112,6.88072C56.4057,7.19144,56.2482,7.43708,56.0396,7.61761ZM59.2467,9.21568L59.2467,2.39715L61.0676,2.39715L61.0676,3.58685L61.1381,3.58685C61.2615,3.16365,61.4688,2.84403,61.7598,2.62798C62.0509,2.40899,62.3861,2.29949,62.7651,2.29949C62.8595,2.29949,62.9609,2.3054,63.0695,2.31724C63.1782,2.32908,63.274,2.34536,63.3565,2.36607L63.3565,4.04408C63.268,4.01744,63.146,3.99377,62.9903,3.97305C62.8342,3.95234,62.6919,3.94198,62.5625,3.94198C62.2862,3.94198,62.0393,4.00265,61.8215,4.12398C61.6069,4.24236,61.4365,4.40809,61.3103,4.62115C61.1869,4.83424,61.1252,5.07988,61.1252,5.35809L61.1252,9.21568L59.2467,9.21568ZM64.7408,8.9227C65.2437,9.20684,65.8433,9.34887,66.5401,9.34887C67.0987,9.34887,67.591,9.26307,68.0174,9.09139C68.4466,8.9168,68.7962,8.67411,69.0665,8.36339C69.3401,8.04968,69.5211,7.68273,69.609,7.26246L67.8719,7.14705C67.807,7.31869,67.713,7.4637,67.5896,7.58211C67.4662,7.70046,67.3174,7.78925,67.1443,7.84843C66.9707,7.90765,66.7795,7.93722,66.5709,7.93722C66.2564,7.93722,65.9847,7.87063,65.7553,7.73744C65.526,7.6043,65.3482,7.41489,65.2216,7.16924C65.0982,6.9236,65.0364,6.63213,65.0364,6.29475L65.0364,6.29028L69.6486,6.29028L69.6486,5.7709C69.6486,5.19087,69.568,4.6848,69.4064,4.25272C69.2447,3.81768,69.0182,3.45663,68.7271,3.16956C68.4393,2.8825,68.1012,2.66794,67.713,2.52589C67.328,2.38087,66.9117,2.30837,66.465,2.30837C65.8009,2.30837,65.2216,2.45634,64.7279,2.75228C64.2369,3.04823,63.8561,3.46107,63.5858,3.99081C63.315,4.52055,63.18,5.13611,63.18,5.83749C63.18,6.55665,63.315,7.17961,63.5858,7.7064C63.8561,8.2302,64.2411,8.63565,64.7408,8.9227ZM65.0383,5.11834C65.0493,4.87352,65.112,4.65007,65.2262,4.44805C65.3496,4.22608,65.52,4.05,65.7374,3.91978C65.958,3.78661,66.2108,3.72002,66.4958,3.72002C66.7694,3.72002,67.0089,3.78069,67.2147,3.90203C67.4234,4.0204,67.5864,4.18465,67.7043,4.39478C67.8217,4.6049,67.8806,4.84607,67.8806,5.11834L65.0383,5.11834ZM4.33154,1.92038L3.2599,1.29718L3.2599,0.0772059L5.99522,1.66758L5.99522,4.84833L4.94605,4.23832L4.94605,2.99257C4.9473,2.94667,4.8942,2.91711,4.85611,2.94037L3.58213,3.68116C3.54654,3.70191,3.52218,3.74091,3.52218,3.78555L3.52218,5.26713C3.52094,5.3124,3.57402,5.34261,3.61211,5.31931L4.68374,4.69612L5.73291,5.30614L2.9976,6.89647L0.26229,5.30614L1.31145,4.69612L2.38372,5.31931C2.42181,5.34261,2.47427,5.31116,2.47302,5.26649L2.47302,3.78555C2.47302,3.74342,2.45179,3.70317,2.41307,3.68054L1.13909,2.93975C1.10037,2.91585,1.04854,2.94729,1.04916,2.99194L1.04916,4.23832L0,4.84833L0,1.66758L2.73532,0.0772059L2.73532,1.29718L1.66367,1.92038C1.6237,1.94175,1.62495,2.00338,1.66367,2.02476L2.93765,2.76555C2.97324,2.7863,3.01884,2.78819,3.05755,2.76555L4.33154,2.02476C4.3715,2.00338,4.37026,1.94175,4.33154,1.92038Z" fill-rule="evenodd" fill="#FFFFFF" fill-opacity="1" style="mix-blend-mode:passthrough"/></g></g></svg>