<svg xmlns="http://www.w3.org/2000/svg" xmlns:xlink="http://www.w3.org/1999/xlink" fill="none" version="1.1" width="26" height="26" viewBox="0 0 26 26"><g><path d="M9,26L3,26C1.34315,26,0,24.6569,0,23L0,17C0,15.3431,1.34315,14,3,14L9,14C10.6569,14,12,15.3431,12,17L12,23C12,24.6569,10.6569,26,9,26ZM3,16C2.44772,16,2,16.4477,2,17L2,23C2,23.5523,2.44772,24,3,24L9,24C9.55229,24,10,23.5523,10,23L10,17C10,16.4477,9.55229,16,9,16L3,16ZM21.5,26L17,26C15.3431,26,14,24.6569,14,23L14,17C14,15.3431,15.3431,14,17,14L23,14C24.6569,14,26,15.3431,26,17L26,21.5C26,22.0523,25.5523,22.5,25,22.5C24.4477,22.5,24,22.0523,24,21.5L24,17C24,16.4477,23.5523,16,23,16L17,16C16.4477,16,16,16.4477,16,17L16,23C16,23.5523,16.4477,24,17,24L21.5,24C22.0523,24,22.5,24.4477,22.5,25C22.5,25.5523,22.0523,26,21.5,26ZM9,12L3,12C1.34315,12,0,10.6569,0,9L0,3C0,1.34315,1.34315,0,3,0L9,0C10.6569,0,12,1.34315,12,3L12,9C12,10.6569,10.6569,12,9,12ZM3,2C2.44772,2,2,2.44772,2,3L2,9C2,9.55229,2.44772,10,3,10L9,10C9.55229,10,10,9.55229,10,9L10,3C10,2.44772,9.55229,2,9,2L3,2ZM23,12L17,12C15.3431,12,14,10.6569,14,9L14,3C14,1.34315,15.3431,0,17,0L23,0C24.6569,0,26,1.34315,26,3L26,9C26,10.6569,24.6569,12,23,12ZM17,2C16.4477,2,16,2.44772,16,3L16,9C16,9.55229,16.4477,10,17,10L23,10C23.5523,10,24,9.55229,24,9L24,3C24,2.44772,23.5523,2,23,2L17,2Z" fill="#FFFFFF" fill-opacity="1" style="mix-blend-mode:passthrough"/></g></svg>