<svg xmlns="http://www.w3.org/2000/svg" xmlns:xlink="http://www.w3.org/1999/xlink" fill="none" version="1.1" width="11.5" height="8.5" viewBox="0 0 11.5 8.5"><g><path d="M11.2833,1.2773919999999999Q11.3874,1.1720869999999999,11.4437,1.035097Q11.5,0.898108,11.5,0.75Q11.5,0.6761315,11.4856,0.603682Q11.4712,0.5312330000000001,11.4429,0.462987Q11.4146,0.394742,11.3736,0.333322Q11.3326,0.271903,11.2803,0.21967000000000003Q11.2281,0.16743699999999995,11.1667,0.126398Q11.1053,0.08535899999999996,11.037,0.057089999999999974Q10.9688,0.028822000000000014,10.8963,0.014410999999999952Q10.8239,0,10.75,0Q10.59974,0,10.46107,0.05788599999999999Q10.32241,0.11577199999999999,10.21675,0.22260800000000003L3.82692,6.68343L1.283252,4.1114999999999995Q1.17759,4.004659999999999,1.038926,3.94677Q0.900261,3.88889,0.75,3.88889Q0.6761315,3.88889,0.603682,3.9033Q0.5312330000000001,3.91771,0.462987,3.94598Q0.394742,3.97425,0.333322,4.01529Q0.271903,4.05633,0.21967000000000003,4.108560000000001Q0.16743699999999995,4.16079,0.126398,4.2222100000000005Q0.08535899999999996,4.2836300000000005,0.057089999999999974,4.3518799999999995Q0.028822000000000014,4.42012,0.014410999999999952,4.492570000000001Q0,4.5650200000000005,0,4.63889Q0,4.787,0.05630000000000002,4.92399Q0.11260000000000003,5.06098,0.21674800000000005,5.16628L0.217063,5.1666L3.29367,8.27739Q3.29658,8.280339999999999,3.29953,8.283249999999999Q3.4056,8.38816,3.54374,8.44448Q3.68188,8.500810000000001,3.83107,8.49999Q3.98025,8.49916,4.1177600000000005,8.44131Q4.255269999999999,8.38346,4.36017,8.27739L11.2829,1.277711L11.2833,1.2773919999999999L11.2833,1.2773919999999999Z" fill-rule="evenodd" fill="#FFFFFF" fill-opacity="1"/></g></svg>