<svg xmlns="http://www.w3.org/2000/svg" xmlns:xlink="http://www.w3.org/1999/xlink" fill="none" version="1.1" width="18" height="18" viewBox="0 0 18 18"><g><path d="M17.6013,0.412345C17.07,-0.120015,16.2075,-0.120015,15.6762,0.412345L9,7.07494L2.32375,0.398691C1.79216,-0.132897,0.930281,-0.132897,0.398692,0.398692C-0.132897,0.930281,-0.132897,1.79216,0.398691,2.32375L7.07494,9L0.398691,15.6762C-0.132897,16.2078,-0.132897,17.0697,0.398691,17.6013C0.930281,18.1329,1.79216,18.1329,2.32375,17.6013L9,10.9251L15.6762,17.6013C16.2078,18.1329,17.0697,18.1329,17.6013,17.6013C18.1329,17.0697,18.1329,16.2078,17.6013,15.6762L10.9251,9L17.6013,2.32375C18.1201,1.80494,18.1201,0.931154,17.6013,0.412345Z" fill="#FFFFFF" fill-opacity="1" style="mix-blend-mode:passthrough"/></g></svg>