<svg xmlns="http://www.w3.org/2000/svg" xmlns:xlink="http://www.w3.org/1999/xlink" fill="none" version="1.1" width="20" height="20" viewBox="0 0 20 20"><defs><clipPath id="master_svg0_269_5726"><rect x="0" y="0" width="20" height="20" rx="0"/></clipPath></defs><g clip-path="url(#master_svg0_269_5726)"><g><path d="M9.166748046875,12.499956494140624L10.833418046875,12.499956494140624L10.833418046875,14.166656494140625L9.166748046875,14.166656494140625L9.166748046875,12.499956494140624ZM9.166748046875,5.833326494140625L10.833418046875,5.833326494140625L10.833418046875,10.833326494140625L9.166748046875,10.833326494140625L9.166748046875,5.833326494140625ZM9.991748046875,1.666656494140625C5.391748046875,1.666656494140625,1.666748046875,5.3999864941406255,1.666748046875,9.999986494140625C1.666748046875,14.599956494140624,5.391748046875,18.333356494140624,9.991748046875,18.333356494140624C14.600048046875,18.333356494140624,18.333448046875,14.599956494140624,18.333448046875,9.999986494140625C18.333448046875,5.3999864941406255,14.600048046875,1.666656494140625,9.991748046875,1.666656494140625ZM10.000078046875,16.666656494140625C6.316748046875,16.666656494140625,3.333418046875,13.683356494140625,3.333418046875,9.999986494140625C3.333418046875,6.316656494140625,6.316748046875,3.333326494140625,10.000078046875,3.333326494140625C13.683448046875,3.333326494140625,16.666748046875,6.316656494140625,16.666748046875,9.999986494140625C16.666748046875,13.683356494140625,13.683448046875,16.666656494140625,10.000078046875,16.666656494140625Z" fill="#FFFFFF" fill-opacity="1" style="mix-blend-mode:passthrough"/></g></g></svg>