<svg xmlns="http://www.w3.org/2000/svg" xmlns:xlink="http://www.w3.org/1999/xlink" fill="none" version="1.1" width="20" height="20.000001907348633" viewBox="0 0 20 20.000001907348633"><defs><clipPath id="master_svg0_75_1815"><rect x="0" y="0" width="20" height="20.000001907348633" rx="0"/></clipPath></defs><g clip-path="url(#master_svg0_75_1815)"><g><path d="M15.8333,15.000033969116211L17.5,15.833333969116211L17.5,2.500003969116211C17.5,1.583333969116211,16.75,0.8333339691162109,15.8333,0.8333339691162109L7.49167,0.8333339691162109C6.575,0.8333339691162109,5.83333,1.583333969116211,5.83333,2.500003969116211L14.1667,2.500003969116211C15.0833,2.500003969116211,15.8333,3.250003969116211,15.8333,4.166663969116211L15.8333,15.000033969116211ZM12.5,4.166663969116211L4.16667,4.166663969116211C3.25,4.166663969116211,2.5,4.916663969116211,2.5,5.833333969116211L2.5,19.166633969116212L8.33333,16.666633969116212L14.1667,19.166633969116212L14.1667,5.833333969116211C14.1667,4.916663969116211,13.4167,4.166663969116211,12.5,4.166663969116211Z" fill="#FFFFFF" fill-opacity="1" style="mix-blend-mode:passthrough"/></g></g></svg>