<svg xmlns="http://www.w3.org/2000/svg" xmlns:xlink="http://www.w3.org/1999/xlink" fill="none" version="1.1" width="35.000003814697266" height="35.000003814697266" viewBox="0 0 35.000003814697266 35.000003814697266"><g><path d="M32.5,20L20,20L20,32.5C20,33.875,18.875,35,17.5,35C16.125,35,15,33.875,15,32.5L15,20L2.5,20C1.125,20,0,18.875,0,17.5C0,16.125,1.125,15,2.5,15L15,15L15,2.5C15,1.125,16.125,0,17.5,0C18.875,0,20,1.125,20,2.5L20,15L32.5,15C33.875,15,35,16.125,35,17.5C35,18.875,33.875,20,32.5,20Z" fill="#FFF" fill-opacity="1"/></g></svg>