<svg xmlns="http://www.w3.org/2000/svg" xmlns:xlink="http://www.w3.org/1999/xlink" fill="none" version="1.1" width="6.583067417144775" height="12" viewBox="0 0 6.583067417144775 12"><g><path d="M0.556269,2.86737C0.0510057,2.65263,-0.163731,2.02737,0.139427,1.57263C0.752058,0.663158,1.77522,0,3.1268,0C4.61101,0,5.62785,0.67579,6.14574,1.52211C6.58785,2.24842,6.8468,3.60632,6.16469,4.61684C5.4068,5.73474,4.68048,6.07579,4.2889,6.79579C4.19416,6.96632,4.13732,7.10526,4.09943,7.38947C4.04258,7.85053,3.66364,8.21053,3.19627,8.21053C2.6468,8.21053,2.19837,7.73684,2.26153,7.18737C2.29943,6.86526,2.37522,6.53053,2.55206,6.21474C3.03837,5.33684,3.97311,4.81895,4.51627,4.04211C5.09101,3.22737,4.7689,1.70526,3.13943,1.70526C2.40048,1.70526,1.92048,2.09053,1.62364,2.55158C1.40258,2.91158,0.941532,3.02526,0.556269,2.86737ZM4.39627,10.7368C4.39627,11.4316,3.82785,12,3.13311,12C2.43837,12,1.86995,11.4316,1.86995,10.7368C1.86995,10.0421,2.43837,9.47368,3.13311,9.47368C3.82785,9.47368,4.39627,10.0421,4.39627,10.7368Z" fill="#FFFFFF" fill-opacity="1" style="mix-blend-mode:passthrough"/></g></svg>