<svg xmlns="http://www.w3.org/2000/svg" xmlns:xlink="http://www.w3.org/1999/xlink" fill="none" version="1.1" width="82.50001525878906" height="74.25005340576172" viewBox="0 0 82.50001525878906 74.25005340576172"><g><path d="M74.25,8.25L8.25,8.25L8.25,66L46.5795,27.6623C48.1903,26.0519,50.8015,26.0519,52.4123,27.6623L74.25,49.5413L74.25,8.25ZM0,4.09613C0.0157081,1.84204,1.83793,0.017978,4.092,0L78.408,0C80.6685,0,82.5,1.83563,82.5,4.09613L82.5,70.1539C82.4843,72.408,80.6621,74.2321,78.408,74.2501L4.092,74.2501C1.83138,74.2477,-4.91738e-7,72.4145,0,70.1539L0,4.09613ZM24.75,33C20.1937,33,16.5,29.3063,16.5,24.75C16.5,20.1937,20.1937,16.5,24.75,16.5C29.3063,16.5,33,20.1937,33,24.75C33,29.3063,29.3063,33,24.75,33Z" fill="#606260" fill-opacity="1"/></g></svg>