<svg xmlns="http://www.w3.org/2000/svg" xmlns:xlink="http://www.w3.org/1999/xlink" fill="none" version="1.1" width="18.666669845581055" height="22.123260498046875" viewBox="0 0 18.666669845581055 22.123260498046875"><g><path d="M6.66667,16.7899L12,16.7899C12.7333,16.7899,13.3333,16.1899,13.3333,15.4566L13.3333,8.78993L15.4533,8.78993C16.64,8.78993,17.24,7.34993,16.4,6.50993L10.28,0.389925C9.76116,-0.129975,8.91884,-0.129975,8.4,0.389925L2.28,6.50993C1.44,7.34993,2.02667,8.78993,3.21333,8.78993L5.33333,8.78993L5.33333,15.4566C5.33333,16.1899,5.93333,16.7899,6.66667,16.7899ZM1.33333,19.4566L17.3333,19.4566C18.0667,19.4566,18.6667,20.0566,18.6667,20.7899C18.6667,21.5233,18.0667,22.1233,17.3333,22.1233L1.33333,22.1233C0.6,22.1233,0,21.5233,0,20.7899C0,20.0566,0.6,19.4566,1.33333,19.4566Z" fill="#FFFFFF" fill-opacity="1" style="mix-blend-mode:passthrough"/></g></svg>