<svg xmlns="http://www.w3.org/2000/svg" xmlns:xlink="http://www.w3.org/1999/xlink" fill="none" version="1.1" width="97.8011698834598" height="68.46082427807141" viewBox="0 0 97.8011698834598 68.46082427807141"><g transform="matrix(2.809999942779541,0,0,2.809999942779541,0,0)"><path d="M34.0773,3.80454C33.677,2.30716,32.4975,1.12767,31.0001,0.727418Q28.2862,0,17.4023,0Q6.51853,0,3.80454,0.727418C2.30716,1.12767,1.12767,2.30716,0.727419,3.80454Q0,6.51853,0,12.1816Q0,17.8448,0.727418,20.5587C1.12767,22.0561,2.30716,23.2356,3.80454,23.6359Q6.51853,24.3633,17.4023,24.3633Q28.2862,24.3633,31.0001,23.6359C32.4975,23.2356,33.677,22.0561,34.0773,20.5587Q34.8047,17.8448,34.8047,12.1816Q34.8047,6.51853,34.0773,3.80454ZM13.9219,17.4023L13.9219,6.96094L22.9641,12.1816L13.9219,17.4023Z" fill="#606260" fill-opacity="1"/></g></svg>